# xmcd
#
# Track frame offsets:
#	150
#	15167
#	32260
#	48215
#	67854
#	86553
#	101261
#	119894
#	132150
#	147311
#	162509
#	177595
#	193661
#	213247
#	223162
#	239084
#	250520
#	266159
#	282504
#	302926
#	319739
#	336985
#
# Disc length: 4704 seconds
#
# Revision: 1
# Processed by: cddbd v1.5.2PL0 Copyright (c) Steve Scherf et al.
# Submitted via: audiograbber 1.83.01
#
DISCID=4a125e16
DTITLE=Various Artist - Gympie Muster 2012
DYEAR=2012
DGENRE=Country
TTITLE0=Lee Kernaghan - Dirt
TTITLE1=Jetty Road - Sweet Goodbye
TTITLE2=Kasey Chambers - Little Bird
TTITLE3=Beccy Cole - Waitress
TTITLE4=Eugene Hidaway Bridges - Special Friend
TTITLE5=Glenn Cardier - Jump Jump
TTITLE6=McAlister Kemp - It Don't Buy You Love
TTITLE7=Shane Nicholson - Bad Machines
TTITLE8=Felicity Urquhart - My Life
TTITLE9=The Sunny Cowgirls - Summer
TTITLE10=Doug Bruce - Sweet
TTITLE11=Jasmine Rae - Ain't The Same Girl
TTITLE12=Colin Hay - Gathering Mercury
TTITLE13=Pete Denahy - Sorta Dunno Nothin'
TTITLE14=Laurie Minson - Rivercat Ride
TTITLE15=Mustered Courage - Kiss From A Rose
TTITLE16=O'Shea - Every Day Is A Good Day
TTITLE17=The Pigs - Hey Christina
TTITLE18=Goanna - Solid Rock
TTITLE19=Dallas Frasca - All My Love
TTITLE20=Morgan Evans - Song For the Radio
TTITLE21=Adam Harvey - Dig Two Graves
EXTD=
EXTT0=
EXTT1=
EXTT2=
EXTT3=
EXTT4=
EXTT5=
EXTT6=
EXTT7=
EXTT8=
EXTT9=
EXTT10=
EXTT11=
EXTT12=
EXTT13=
EXTT14=
EXTT15=
EXTT16=
EXTT17=
EXTT18=
EXTT19=
EXTT20=
EXTT21=
PLAYORDER=
